<?xml version="1.0" encoding="UTF-8" standalone="no"?>
<!--
  Licensed to the Apache Software Foundation (ASF) under one or more
  contributor license agreements.  See the NOTICE file distributed with
  this work for additional information regarding copyright ownership.
  The ASF licenses this file to You under the Apache License, Version 2.0
  (the "License"); you may not use this file except in compliance with
  the License.  You may obtain a copy of the License at

      http://www.apache.org/licenses/LICENSE-2.0

  Unless required by applicable law or agreed to in writing, software
  distributed under the License is distributed on an "AS IS" BASIS,
  WITHOUT WARRANTIES OR CONDITIONS OF ANY KIND, either express or implied.
  See the License for the specific language governing permissions and
  limitations under the License.
-->

<svg
   xmlns:dc="http://purl.org/dc/elements/1.1/"
   xmlns:cc="http://creativecommons.org/ns#"
   xmlns:rdf="http://www.w3.org/1999/02/22-rdf-syntax-ns#"
   xmlns:svg="http://www.w3.org/2000/svg"
   xmlns="http://www.w3.org/2000/svg"
   xmlns:sodipodi="http://sodipodi.sourceforge.net/DTD/sodipodi-0.dtd"
   xmlns:inkscape="http://www.inkscape.org/namespaces/inkscape"
   version="1.1"
   width="627"
   height="159.11443"
   viewBox="0 0 627 159.11443"
   id="svg5115"
   sodipodi:docname="accumulo.svg"
   inkscape:version="0.92.4 (5da689c313, 2019-01-14)">
  <metadata
     id="metadata5119">
    <rdf:RDF>
      <cc:Work
         rdf:about="">
        <dc:format>image/svg+xml</dc:format>
        <dc:type
           rdf:resource="http://purl.org/dc/dcmitype/StillImage" />
        <dc:title></dc:title>
      </cc:Work>
    </rdf:RDF>
  </metadata>
  <sodipodi:namedview
     pagecolor="#ffffff"
     bordercolor="#666666"
     borderopacity="1"
     objecttolerance="10"
     gridtolerance="10"
     guidetolerance="10"
     inkscape:pageopacity="0"
     inkscape:pageshadow="2"
     inkscape:window-width="1600"
     inkscape:window-height="877"
     id="namedview5117"
     showgrid="false"
     fit-margin-top="0"
     fit-margin-left="0"
     fit-margin-right="0"
     fit-margin-bottom="0"
     inkscape:zoom="2.1836364"
     inkscape:cx="234.49579"
     inkscape:cy="68.014249"
     inkscape:window-x="-8"
     inkscape:window-y="-8"
     inkscape:window-maximized="1"
     inkscape:current-layer="svg5115" />
  <defs
     id="defs5043">
    <style
       type="text/css"
       id="style5041"><![CDATA[
      path.frame {
        stroke: rgb(192, 192, 192);
        stroke-width: 2;
        stroke-linecap: round;
        fill: none;
      }
      path.a, path.c, path.u, path.m, path.l, path.o {
        stroke: #000000;
        stroke-width: 6;
        stroke-linecap: round;
        fill: none;
      }
      text {
        font: 16px sans-serif;
        stroke: rgb(96, 96, 96);
        fill: rgb(96, 96, 96);
      }
    ]]></style>
  </defs>
  <g
     transform="matrix(1.169714,0,0,1.169714,-8.1713384,-8.1713384)"
     id="g5113">
    <path
       d="m 8,42 h 30 a 4,4 0 0 0 4,-4 V 8"
       class="frame"
       id="path5045"
       inkscape:connector-curvature="0"
       style="fill:none;stroke:#c0c0c0;stroke-width:2;stroke-linecap:round" />
    <path
       d="m 8,58 h 30 a 4,4 0 0 1 4,4 v 26 a 4,4 0 0 1 -4,4 H 8"
       class="frame"
       id="path5047"
       inkscape:connector-curvature="0"
       style="fill:none;stroke:#c0c0c0;stroke-width:2;stroke-linecap:round" />
    <path
       d="m 8,108 h 30 a 4,4 0 0 1 4,4 v 30"
       class="frame"
       id="path5049"
       inkscape:connector-curvature="0"
       style="fill:none;stroke:#c0c0c0;stroke-width:2;stroke-linecap:round" />
    <path
       d="m 58,8 v 30 a 4,4 0 0 0 4,4 h 26 a 4,4 0 0 0 4,-4 V 8"
       class="frame"
       id="path5051"
       inkscape:connector-curvature="0"
       style="fill:none;stroke:#c0c0c0;stroke-width:2;stroke-linecap:round" />
    <path
       d="m 108,8 v 30 a 4,4 0 0 0 4,4 h 26 a 4,4 0 0 0 4,-4 V 8"
       class="frame"
       id="path5053"
       inkscape:connector-curvature="0"
       style="fill:none;stroke:#c0c0c0;stroke-width:2;stroke-linecap:round" />
    <path
       d="m 158,8 v 30 a 4,4 0 0 0 4,4 h 26 a 4,4 0 0 0 4,-4 V 8"
       class="frame"
       id="path5055"
       inkscape:connector-curvature="0"
       style="fill:none;stroke:#c0c0c0;stroke-width:2;stroke-linecap:round" />
    <path
       d="m 208,8 v 30 a 4,4 0 0 0 4,4 h 26 a 4,4 0 0 0 4,-4 V 8"
       class="frame"
       id="path5057"
       inkscape:connector-curvature="0"
       style="fill:none;stroke:#c0c0c0;stroke-width:2;stroke-linecap:round" />
    <path
       d="m 258,8 v 30 a 4,4 0 0 0 4,4 h 26 a 4,4 0 0 0 4,-4 V 8"
       class="frame"
       id="path5059"
       inkscape:connector-curvature="0"
       style="fill:none;stroke:#c0c0c0;stroke-width:2;stroke-linecap:round" />
    <path
       d="m 308,8 v 30 a 4,4 0 0 0 4,4 h 26 a 4,4 0 0 0 4,-4 V 8"
       class="frame"
       id="path5061"
       inkscape:connector-curvature="0"
       style="fill:none;stroke:#c0c0c0;stroke-width:2;stroke-linecap:round" />
    <path
       d="m 358,8 v 30 a 4,4 0 0 0 4,4 h 26 a 4,4 0 0 0 4,-4 V 8"
       class="frame"
       id="path5063"
       inkscape:connector-curvature="0"
       style="fill:none;stroke:#c0c0c0;stroke-width:2;stroke-linecap:round" />
    <path
       d="m 408,8 v 30 a 4,4 0 0 0 4,4 h 26 a 4,4 0 0 0 4,-4 V 8"
       class="frame"
       id="path5065"
       inkscape:connector-curvature="0"
       style="fill:none;stroke:#c0c0c0;stroke-width:2;stroke-linecap:round" />
    <path
       d="m 458,8 v 30 a 4,4 0 0 0 4,4 h 26 a 4,4 0 0 0 4,-4 V 8"
       class="frame"
       id="path5067"
       inkscape:connector-curvature="0"
       style="fill:none;stroke:#c0c0c0;stroke-width:2;stroke-linecap:round" />
    <path
       d="m 58,142 v -30 a 4,4 0 0 1 4,-4 h 26 a 4,4 0 0 1 4,4 v 30"
       class="frame"
       id="path5069"
       inkscape:connector-curvature="0"
       style="fill:none;stroke:#c0c0c0;stroke-width:2;stroke-linecap:round" />
    <path
       d="m 108,142 v -30 a 4,4 0 0 1 4,-4 h 26 a 4,4 0 0 1 4,4 v 30"
       class="frame"
       id="path5071"
       inkscape:connector-curvature="0"
       style="fill:none;stroke:#c0c0c0;stroke-width:2;stroke-linecap:round" />
    <path
       d="m 158,142 v -30 a 4,4 0 0 1 4,-4 h 26 a 4,4 0 0 1 4,4 v 30"
       class="frame"
       id="path5073"
       inkscape:connector-curvature="0"
       style="fill:none;stroke:#c0c0c0;stroke-width:2;stroke-linecap:round" />
    <path
       d="m 208,142 v -30 a 4,4 0 0 1 4,-4 h 26 a 4,4 0 0 1 4,4 v 30"
       class="frame"
       id="path5075"
       inkscape:connector-curvature="0"
       style="fill:none;stroke:#c0c0c0;stroke-width:2;stroke-linecap:round" />
    <path
       d="m 258,142 v -30 a 4,4 0 0 1 4,-4 h 26 a 4,4 0 0 1 4,4 v 30"
       class="frame"
       id="path5077"
       inkscape:connector-curvature="0"
       style="fill:none;stroke:#c0c0c0;stroke-width:2;stroke-linecap:round" />
    <path
       d="m 308,142 v -30 a 4,4 0 0 1 4,-4 h 26 a 4,4 0 0 1 4,4 v 30"
       class="frame"
       id="path5079"
       inkscape:connector-curvature="0"
       style="fill:none;stroke:#c0c0c0;stroke-width:2;stroke-linecap:round" />
    <path
       d="m 358,142 v -30 a 4,4 0 0 1 4,-4 h 26 a 4,4 0 0 1 4,4 v 30"
       class="frame"
       id="path5081"
       inkscape:connector-curvature="0"
       style="fill:none;stroke:#c0c0c0;stroke-width:2;stroke-linecap:round" />
    <path
       d="m 408,142 v -30 a 4,4 0 0 1 4,-4 h 26 a 4,4 0 0 1 4,4 v 30"
       class="frame"
       id="path5083"
       inkscape:connector-curvature="0"
       style="fill:none;stroke:#c0c0c0;stroke-width:2;stroke-linecap:round" />
    <path
       d="m 458,142 v -30 a 4,4 0 0 1 4,-4 h 26 a 4,4 0 0 1 4,4 v 30"
       class="frame"
       id="path5085"
       inkscape:connector-curvature="0"
       style="fill:none;stroke:#c0c0c0;stroke-width:2;stroke-linecap:round" />
    <path
       d="m 542,42 h -30 a 4,4 0 0 1 -4,-4 V 8"
       class="frame"
       id="path5087"
       inkscape:connector-curvature="0"
       style="fill:none;stroke:#c0c0c0;stroke-width:2;stroke-linecap:round" />
    <path
       d="m 542,58 h -30 a 4,4 0 0 0 -4,4 v 26 a 4,4 0 0 0 4,4 h 30"
       class="frame"
       id="path5089"
       inkscape:connector-curvature="0"
       style="fill:none;stroke:#c0c0c0;stroke-width:2;stroke-linecap:round" />
    <path
       d="m 542,108 h -30 a 4,4 0 0 0 -4,4 v 30"
       class="frame"
       id="path5091"
       inkscape:connector-curvature="0"
       style="fill:none;stroke:#c0c0c0;stroke-width:2;stroke-linecap:round" />
    <path
       d="m 58,66 a 8,8 0 0 1 8,-8 h 18 a 8,8 0 0 1 8,8 v 18 a 8,8 0 0 1 -8,8 H 66 a 8,8 0 0 1 -8,-8 v -1 a 8,8 0 0 1 8,-8 h 26"
       class="a"
       id="path5093"
       inkscape:connector-curvature="0"
       style="fill:none;stroke:#000000;stroke-width:6;stroke-linecap:round" />
    <path
       d="m 142,58 h -26 a 8,8 0 0 0 -8,8 v 18 a 8,8 0 0 0 8,8 h 26"
       class="c"
       id="path5095"
       inkscape:connector-curvature="0"
       style="fill:none;stroke:#000000;stroke-width:6;stroke-linecap:round" />
    <path
       d="m 192,58 h -26 a 8,8 0 0 0 -8,8 v 18 a 8,8 0 0 0 8,8 h 26"
       class="c"
       id="path5097"
       inkscape:connector-curvature="0"
       style="fill:none;stroke:#000000;stroke-width:6;stroke-linecap:round" />
    <path
       d="m 208,58 v 26 a 8,8 0 0 0 8,8 h 18 a 8,8 0 0 0 8,-8 V 58"
       class="u"
       id="path5099"
       inkscape:connector-curvature="0"
       style="fill:none;stroke:#000000;stroke-width:6;stroke-linecap:round" />
    <path
       d="M 258,92 V 66 a 8,8 0 0 1 8,-8 h 26 a 8,8 0 0 1 8,8 v 26"
       class="m"
       id="path5101"
       inkscape:connector-curvature="0"
       style="fill:none;stroke:#000000;stroke-width:6;stroke-linecap:round" />
    <path
       d="M 300,92 V 66 a 8,8 0 0 1 8,-8 h 26 a 8,8 0 0 1 8,8 v 26"
       class="m"
       id="path5103"
       inkscape:connector-curvature="0"
       style="fill:none;stroke:#000000;stroke-width:6;stroke-linecap:round" />
    <path
       d="m 358,58 v 26 a 8,8 0 0 0 8,8 h 18 a 8,8 0 0 0 8,-8 V 58"
       class="u"
       id="path5105"
       inkscape:connector-curvature="0"
       style="fill:none;stroke:#000000;stroke-width:6;stroke-linecap:round" />
    <path
       d="m 408,58 v 26 a 8,8 0 0 0 8,8 h 26"
       class="l"
       id="path5107"
       inkscape:connector-curvature="0"
       style="fill:none;stroke:#000000;stroke-width:6;stroke-linecap:round" />
    <path
       d="m 458,66 a 8,8 0 0 1 8,-8 h 18 a 8,8 0 0 1 8,8 v 18 a 8,8 0 0 1 -8,8 h -18 a 8,8 0 0 1 -8,-8 z"
       class="a"
       id="path5109"
       inkscape:connector-curvature="0"
       style="fill:none;stroke:#000000;stroke-width:6;stroke-linecap:round" />
    <text
       x="516"
       y="29"
       id="text5111"
       style="font-style:normal;font-variant:normal;font-weight:normal;font-stretch:normal;font-size:16px;line-height:normal;font-family:sans-serif;fill:#606060;stroke:#606060">TM</text>
  </g>
</svg>
