<svg xmlns="http://www.w3.org/2000/svg" viewBox="0 0 115.6 100"><defs><style>.cls-1{fill:#ff8000;}.cls-2{fill:#db1600;}.cls-3{fill:#6826ff;}.cls-4{fill:#1950ff;}</style></defs><g id="Layer_2" data-name="Layer 2"><g id="Layer_1-2" data-name="Layer 1"><circle class="cls-1" cx="57.8" cy="25.66" r="2.45"/><circle class="cls-1" cx="61.57" cy="18.11" r="2.64"/><circle class="cls-1" cx="54.03" cy="18.11" r="2.64"/><circle class="cls-1" cx="27.61" cy="55.86" r="1.7"/><circle class="cls-1" cx="35.15" cy="55.86" r="1.7"/><circle class="cls-1" cx="42.7" cy="55.86" r="1.7"/><circle class="cls-1" cx="31.38" cy="48.31" r="1.89"/><circle class="cls-1" cx="38.93" cy="48.31" r="1.89"/><circle class="cls-1" cx="46.48" cy="48.31" r="1.89"/><circle class="cls-1" cx="35.15" cy="40.76" r="2.07"/><circle class="cls-1" cx="42.7" cy="40.76" r="2.07"/><circle class="cls-1" cx="50.25" cy="40.76" r="2.07"/><circle class="cls-1" cx="38.93" cy="33.21" r="2.26"/><circle class="cls-1" cx="46.48" cy="33.21" r="2.26"/><circle class="cls-1" cx="54.03" cy="33.21" r="2.26"/><circle class="cls-1" cx="42.7" cy="25.66" r="2.45"/><circle class="cls-1" cx="50.25" cy="25.66" r="2.45"/><circle class="cls-1" cx="46.48" cy="18.11" r="2.64"/><circle class="cls-1" cx="50.25" cy="10.57" r="2.83"/><circle class="cls-1" cx="57.8" cy="10.57" r="2.83"/><circle class="cls-1" cx="65.35" cy="10.57" r="2.83"/><circle class="cls-1" cx="54.03" cy="3.02" r="3.02"/><circle class="cls-1" cx="61.57" cy="3.02" r="3.02"/><circle class="cls-2" cx="87.99" cy="55.86" r="1.7"/><circle class="cls-3" cx="80.45" cy="55.86" r="1.7"/><circle class="cls-4" cx="72.9" cy="55.86" r="1.7"/><circle class="cls-2" cx="84.22" cy="48.31" r="1.89"/><circle class="cls-3" cx="76.67" cy="48.31" r="1.89"/><circle class="cls-4" cx="69.12" cy="48.31" r="1.89"/><circle class="cls-2" cx="80.45" cy="40.76" r="2.07"/><circle class="cls-3" cx="72.9" cy="40.76" r="2.07"/><circle class="cls-4" cx="65.35" cy="40.76" r="2.07"/><circle class="cls-2" cx="76.67" cy="33.21" r="2.26"/><circle class="cls-3" cx="69.12" cy="33.21" r="2.26"/><circle class="cls-4" cx="61.57" cy="33.21" r="2.26"/><circle class="cls-2" cx="72.9" cy="25.66" r="2.45"/><circle class="cls-3" cx="65.35" cy="25.66" r="2.45"/><circle class="cls-2" cx="69.12" cy="18.11" r="2.64"/><path d="M26.19,64.86a8.88,8.88,0,0,1,1.64.14,1.66,1.66,0,0,1,.75.32A1.63,1.63,0,0,1,29,66a4.65,4.65,0,0,1,.21,1.61V78.07l2.11-.89a14.17,14.17,0,0,1,1.72-.54,9.3,9.3,0,0,1,2.45-.29c2.81,0,4.92.72,6.43,2.2s2.24,3.72,2.24,6.76V99.58l-.24,0a13.49,13.49,0,0,1-1.93.14,8.86,8.86,0,0,1-1.64-.13,1.61,1.61,0,0,1-.75-.32,1.52,1.52,0,0,1-.44-.68l-.11-.26a1.33,1.33,0,0,1-.11-.71V85.84a5.33,5.33,0,0,0-1.5-4.19A5.05,5.05,0,0,0,34,80.39a7.93,7.93,0,0,0-2.29.33,6.35,6.35,0,0,0-1.83.85l-.65.45V99.58l-.24,0a13.28,13.28,0,0,1-1.93.14,8.82,8.82,0,0,1-1.63-.13,1.57,1.57,0,0,1-.75-.32,1.61,1.61,0,0,1-.45-.68c0-.1-.07-.18-.1-.26a1.33,1.33,0,0,1-.11-.71V65.09l.33-.06a10.24,10.24,0,0,1,1.84-.17"/><path d="M82.61,76.34c3.25,0,5.75.76,7.43,2.25a7.78,7.78,0,0,1,2.45,6.19v14.8l-.24,0a13.49,13.49,0,0,1-1.93.14,8.75,8.75,0,0,1-1.63-.13,1.57,1.57,0,0,1-.75-.32,1.53,1.53,0,0,1-.45-.68c0-.1-.07-.18-.11-.26a1.35,1.35,0,0,1-.1-.71V85.1a4.59,4.59,0,0,0-1.35-3.55,4.78,4.78,0,0,0-3.32-1.16,8.35,8.35,0,0,0-2.33.32,6.18,6.18,0,0,0-2.15,1.06l-.58.46V99.58l-.24,0a13.49,13.49,0,0,1-1.93.14,8.86,8.86,0,0,1-1.64-.13,1.61,1.61,0,0,1-.75-.32,1.52,1.52,0,0,1-.44-.68l-.11-.26a1.33,1.33,0,0,1-.11-.71v-16a3,3,0,0,1,.33-1.55,4.84,4.84,0,0,1,1.17-1.24,11.72,11.72,0,0,1,3.68-1.83,16.84,16.84,0,0,1,5.1-.73"/><path d="M9.11,76.58a16.17,16.17,0,0,1,4.27.52,8.68,8.68,0,0,1,3.07,1.47A6.2,6.2,0,0,1,18.3,81,9,9,0,0,1,19,84.58V96.29a1.52,1.52,0,0,1-.35,1.2,4.67,4.67,0,0,1-2.25,1.6l-.07,0-.06,0a19.22,19.22,0,0,1-6.18.86,26.28,26.28,0,0,1-4.95-.46c-2.45-.57-3.43-1.23-4.5-3a6.94,6.94,0,0,1-.61-3A6,6,0,0,1,1.49,89a8.63,8.63,0,0,1,5.14-2l6.21-.73,1.34-.16V84.48a3.78,3.78,0,0,0-2-3.5A8.82,8.82,0,0,0,8,80.15a16.59,16.59,0,0,0-3.87.46,21,21,0,0,0-2.27.69c0-.07-.07-.14-.11-.22a3.38,3.38,0,0,1-.3-1.39,2.13,2.13,0,0,1,.3-1.26,3.24,3.24,0,0,1,1.22-.89,12.23,12.23,0,0,1,2.84-.72,24.73,24.73,0,0,1,3.33-.24m.06,12.89a6.42,6.42,0,0,0-2.85.84,3.21,3.21,0,0,0-1.58,2.85A3.66,3.66,0,0,0,6,96a5.12,5.12,0,0,0,3.5,1,11,11,0,0,0,2-.21,5.46,5.46,0,0,0,2-.71l.69-.45V89l-1.66.15-3.4.31"/><path d="M57.42,76.58a16.17,16.17,0,0,1,4.27.52,8.6,8.6,0,0,1,3.07,1.47A6.2,6.2,0,0,1,66.61,81a9,9,0,0,1,.67,3.62V96.29a1.52,1.52,0,0,1-.35,1.2,4.67,4.67,0,0,1-2.25,1.6l-.06,0-.07,0a19.22,19.22,0,0,1-6.18.86,26.28,26.28,0,0,1-4.95-.46c-2.45-.57-3.43-1.23-4.5-3a6.94,6.94,0,0,1-.61-3A5.94,5.94,0,0,1,49.81,89a8.57,8.57,0,0,1,5.13-2l6.21-.73,1.34-.16V84.48a3.78,3.78,0,0,0-2-3.5,8.82,8.82,0,0,0-4.2-.83,16.59,16.59,0,0,0-3.87.46,22.45,22.45,0,0,0-2.27.69c0-.07-.07-.14-.11-.22a3.38,3.38,0,0,1-.3-1.39,2.13,2.13,0,0,1,.3-1.26,3.24,3.24,0,0,1,1.22-.89,12.23,12.23,0,0,1,2.84-.72,24.85,24.85,0,0,1,3.33-.24m.06,12.89a6.46,6.46,0,0,0-2.85.84,3.23,3.23,0,0,0-1.58,2.85A3.69,3.69,0,0,0,54.3,96a5.12,5.12,0,0,0,3.5,1,11,11,0,0,0,2.05-.21,5.46,5.46,0,0,0,2-.71l.69-.45V89l-1.66.15-3.4.31"/><path d="M105.73,76.58a16.17,16.17,0,0,1,4.27.52,8.6,8.6,0,0,1,3.07,1.47A6.1,6.1,0,0,1,114.92,81a8.79,8.79,0,0,1,.68,3.62V96.29a1.52,1.52,0,0,1-.36,1.2,4.59,4.59,0,0,1-2.24,1.6l-.07,0-.07,0a19.14,19.14,0,0,1-6.17.86,26.38,26.38,0,0,1-5-.46c-2.44-.57-3.43-1.23-4.5-3a7.09,7.09,0,0,1-.6-3A5.93,5.93,0,0,1,98.12,89a8.59,8.59,0,0,1,5.13-2l6.21-.73,1.35-.16V84.48a3.8,3.8,0,0,0-2-3.5,8.86,8.86,0,0,0-4.21-.83,16.72,16.72,0,0,0-3.87.46,22.45,22.45,0,0,0-2.27.69l-.11-.22a3.53,3.53,0,0,1-.29-1.39,2.13,2.13,0,0,1,.3-1.26,3.11,3.11,0,0,1,1.21-.89,12.32,12.32,0,0,1,2.85-.72,24.71,24.71,0,0,1,3.32-.24m.06,12.89a6.41,6.41,0,0,0-2.84.84,3.21,3.21,0,0,0-1.58,2.85A3.68,3.68,0,0,0,102.61,96a5.13,5.13,0,0,0,3.5,1,11.07,11.07,0,0,0,2.06-.21,5.53,5.53,0,0,0,2-.71l.68-.45V89l-1.65.15-3.41.31"/></g></g></svg>