<svg xmlns="http://www.w3.org/2000/svg" role="img" viewBox="-10.61 -10.61 551.72 242.72"><path fill="#00b188" d="M170.45011 40.90145H11.63419V11.46872h158.81592zM181.79739.10417H.28115v52.13305H181.7974z"/><path fill="#040404" d="M11.62 138.447H.27336V86.2992H11.62v20.60018h20.2729V86.2992h11.34665v52.1478H31.8929v-21.60357H11.62V138.447"/><path fill="#040404" d="M60.53 115.43h13.51527c-.25175-3.83376-1.83416-6.50589-6.25773-6.50589-3.33746 0-6.25774 1.42058-7.25754 6.50589zm8.5918 23.68949c-11.51208 0-19.35223-7.25754-19.35223-19.1796 0-11.5984 7.67472-19.60398 17.85253-19.60398 11.0949 0 16.60098 7.42297 16.60098 18.51786v4.17183H60.53c1.33786 5.75064 5.84055 7.25034 10.34684 7.25034 3.92008 0 6.75404-.83077 10.25694-3.003h.42077v8.5918c-3.00299 2.17223-7.26113 3.25475-12.43275 3.25475"/><path fill="#040404" d="M113.758 116.58l-5.84055 21.85173h-9.92607l-11.34664-36.68328v-.41719h10.84674l6.17143 21.93804 5.84055-21.93804h8.84355l5.92327 21.93804 6.25773-21.93804h10.42956v.41719l-11.34664 36.68328h-9.92966L113.758 116.58"/><path fill="#040404" d="M159.216 139.022c-9.00898 0-12.6809-3.58561-12.6809-12.00838v-40.963h11.01217v40.20776c0 2.5858.9998 3.50289 3.16843 3.50289.75165 0 1.83776-.24815 2.5031-.4999h.16902v9.0917c-.91708.33087-2.50309.66533-4.17182.66533"/><path fill="#040404" d="M177.342 115.43h13.51527c-.25175-3.83376-1.83416-6.50589-6.25773-6.50589-3.33387 0-6.25774 1.42058-7.25754 6.50589zm8.5918 23.68949c-11.51208 0-19.35223-7.25754-19.35223-19.1796 0-11.5984 7.67472-19.60398 17.85253-19.60398 11.0949 0 16.60098 7.42297 16.60098 18.51786v4.17183H177.342c1.33426 5.75064 5.84055 7.25034 10.34325 7.25034 3.92367 0 6.75763-.83077 10.26412-3.003h.41718v8.5918c-3.00299 2.17223-7.25753 3.25475-12.43275 3.25475"/><path fill="#040404" d="M246.394 101.332h8.17462v8.83995H246.394v15.09769c0 3.25474 1.25155 4.75804 4.589 4.75804.91709 0 2.08592-.08632 3.33747-.5035h.24815v8.67452c-1.41698.5035-3.58561 1.08251-6.75404 1.08251-8.92986 0-12.43276-4.0855-12.43276-13.51167v-15.59759h-14.09788v15.09769c0 3.25474 1.25154 4.75804 4.5854 4.75804.92068 0 2.08951-.08632 3.34106-.5035h.24815v8.67452c-1.41698.5035-3.5892 1.08251-6.75404 1.08251-8.92986 0-12.43275-4.0855-12.43275-13.51167v-15.59759h-5.67512V101.332h5.67512V91.15778h11.01218V101.332h14.09788V91.15778H246.394V101.332"/><path fill="#040404" d="M291.565 111.69c5.76143 0 8.50908-3.25115 8.50908-7.92287 0-4.84075-2.74765-8.0919-8.50908-8.0919h-7.17482V111.69zm20.02476-7.92287c0 11.34664-7.592 17.51447-19.10768 17.51447h-8.0919v16.93185h-11.33945v-52.1478h19.43135c11.51567 0 19.10768 6.17142 19.10768 17.6835"/><path fill="#040404" d="M335.872 126.65v-3.16843c-1.66873-.91348-3.83376-1.24795-6.0887-1.24795-3.58562 0-5.75425 1.33067-5.75425 4.33366 0 3.08931 2.16863 4.42357 5.41978 4.42357 3.08571 0 5.42337-1.586 6.42317-4.34085zm.33447 8.00918c-2.42038 2.92028-6.0024 4.33726-9.84695 4.33726-7.25394 0-13.1808-4.41638-13.1808-12.26372 0-7.25394 5.92686-12.0911 14.43235-12.0911 2.66853 0 5.42697.41718 8.26093 1.24795v-.66174c0-4.00639-2.25135-5.75424-8.17102-5.75424-3.75824 0-7.34385 1.07892-10.43316 2.83397h-.41358V103.464c2.83396-1.66513 7.84375-3.08571 12.76002-3.08571 11.18121 0 17.26992 5.33706 17.26992 14.6805v23.26871h-10.67771v-3.66833"/><path fill="#040404" d="M352.272 119.746c0-11.92926 8.42996-19.43495 19.44214-19.43495 3.92007 0 7.5884.83437 10.34324 2.83397v9.42616h-.42077c-2.42038-1.83416-5.25434-2.92027-8.50549-2.92027-5.50609 0-9.67791 3.75823-9.67791 10.09509s4.17182 10.00878 9.67791 10.00878c3.25115 0 6.0851-1.08611 8.50549-2.92387h.42077v9.42616c-2.75484 2.0032-6.42317 2.83756-10.34324 2.83756-11.01218 0-19.44214-7.41937-19.44214-19.34863"/><path fill="#040404" d="M400.033 121.472v16.84554h-11.00858v-52.1478H400.033v29.69188l11.09849-14.6805h12.51188v.41717l-13.34624 16.84914 13.34624 19.43494v.41719h-12.5982L400.033 121.45402"/><path fill="#040404" d="M448.368 126.65v-3.16843c-1.66513-.91348-3.83736-1.24795-6.0887-1.24795-3.58562 0-5.75425 1.33067-5.75425 4.33366 0 3.08931 2.16863 4.42357 5.41618 4.42357 3.0929 0 5.42697-1.586 6.42677-4.34085zm.33447 8.00918c-2.42038 2.92028-6.00959 4.33726-9.84335 4.33726-7.26113 0-13.1808-4.41638-13.1808-12.26372 0-7.25394 5.91967-12.0911 14.43594-12.0911 2.66853 0 5.41618.41718 8.25374 1.24795v-.66174c0-4.00639-2.25135-5.75424-8.17462-5.75424-3.75104 0-7.34385 1.07892-10.42956 2.83397h-.41718V103.464c2.83756-1.66513 7.84375-3.08571 12.76362-3.08571 11.1848 0 17.27351 5.33706 17.27351 14.6805v23.26871h-10.6813v-3.66833"/><path fill="#040404" d="M478.003 107.086c1.9996-4.0891 4.92347-6.42317 9.01258-6.42317 1.4997 0 2.9994.33446 3.57842.66893v10.50868h-.41359c-1.25155-.5035-2.75125-.83436-4.83716-.83436-3.42017 0-6.0887 2.0032-7.00938 5.83695v21.35543h-11.00858V101.0836H478.003v6.00599"/><path fill="#040404" d="M519.721 125.788v-11.92926c-1.83416-2.66853-4.25094-3.83376-7.00938-3.83376-4.83357 0-8.0883 3.50649-8.0883 9.84335s3.25473 9.75703 8.0883 9.75703c2.75844 0 5.17522-1.16883 7.00938-3.83736zm.33087 8.76083c-2.33406 3.003-6.00599 4.66813-11.00858 4.66813-9.51248 0-15.60118-8.67092-15.60118-19.34863s6.0887-19.43495 15.60118-19.43495c4.83716 0 8.34005 1.5033 10.67771 4.25454V86.25637h11.01218v52.11184h-10.68131v-3.83377"/><path fill="#040404" d="M.399 155.422h32.20217v6.33686H7.65654v15.92845H30.2635v6.17502H7.65654v17.34903h24.94463v6.33686H.399V155.4364"/><path fill="#040404" d="M59.092 170.095c8.25733 0 12.84634 5.42337 12.84634 14.34244v23.10687h-6.92307v-22.93784c0-4.75444-2.42038-8.17461-7.67472-8.17461-4.33726 0-8.00918 2.75484-9.26073 6.67132v24.44113h-6.92307v-36.68328h6.92307v5.33706c2.16863-3.42018 5.84056-6.0887 11.01218-6.0887"/><path fill="#040404" d="M90.453 170.67h9.42616v5.92327H90.453v19.76582c0 4.16822 2.16863 5.5888 6.0887 5.5888 1.08252 0 2.25135-.16543 3.08572-.4999h.25174v5.91968c-.9998.41718-2.42037.75164-4.33725.75164-8.5954 0-12.01198-3.92367-12.01198-11.0913v-20.43474h-6.34045V170.67h6.34045v-9.75344H90.453V170.67"/><path fill="#040404" d="M111.456 185.632h18.26971c-.24815-5.41977-2.92027-9.588-8.5918-9.588-5.25434 0-8.67811 3.92007-9.67791 9.588zm10.92946 22.68969c-10.76403 0-18.10428-7.17482-18.10428-18.6833 0-11.51208 6.84035-19.51766 16.77002-19.51766 10.09509 0 15.34943 7.25753 15.34943 18.01436v3.17203h-25.19638c.75165 7.42297 5.50969 11.00858 12.0983 11.00858 4.0891 0 7.00578-.91708 10.26052-3.33746h.25175v6.0923c-3.003 2.33407-6.92667 3.25115-11.42936 3.25115"/><path fill="#040404" d="M151.736 176.425c1.58601-3.92008 5.0925-6.25414 9.0917-6.25414 1.5896 0 3.00659.24815 3.5892.58262v6.83675h-.24815c-1.0034-.4963-2.67212-.74805-4.34085-.74805-3.75105 0-6.92307 2.4995-8.0919 6.67132v23.93764h-6.92307v-36.68328h6.92307v5.67153"/><path fill="#040404" d="M186.55 202.032c6.84035 0 10.84674-5.41977 10.84674-12.84634 0-7.33666-4.00639-12.83915-10.84674-12.83915-3.75464 0-7.25754 2.25135-9.0917 5.83336v14.10149c1.83416 3.58201 5.33706 5.75064 9.0917 5.75064zm1.16883-31.94322c10.92586 0 16.76642 8.92626 16.76642 19.09688 0 10.1814-5.84056 19.10408-16.76642 19.10408-4.50629 0-8.34365-2.33407-10.26053-4.84076v18.187h-6.92667V170.8548h6.92667v4.16823c1.91688-2.58582 5.75424-4.91988 10.26053-4.91988"/><path fill="#040404" d="M219.636 176.425c1.58242-3.92008 5.0889-6.25414 9.0917-6.25414 1.58601 0 3.003.24815 3.58561.58262v6.83675h-.24815c-.9998-.4963-2.66853-.74805-4.33726-.74805-3.75464 0-6.92307 2.4995-8.0919 6.67132v23.93764h-6.92307v-36.68328h6.92307v5.67153"/><path fill="#040404" d="M242.366 155.998c2.42038 0 4.41998 1.91688 4.41998 4.33726s-1.9996 4.33726-4.41998 4.33726c-2.33406 0-4.42357-1.91688-4.42357-4.33726s2.0895-4.33726 4.42357-4.33726"/><path fill="#040404" d="M238.92509 207.48554h6.92806v-36.7118h-6.92806z"/><path fill="#040404" d="M270.561 185.92c5.25434 1.66513 11.0913 3.83376 11.0913 10.83955 0 7.50928-6.17142 11.34664-14.0943 11.34664-4.84075 0-9.6779-1.16883-12.43275-3.33746v-6.5886h.33447c3.0893 2.83396 7.67471 4.0855 12.01197 4.0855 3.92008 0 7.42657-1.50329 7.42657-4.67172 0-3.25114-2.91668-4.00279-8.67811-5.91967-5.17163-1.66873-10.92587-3.5892-10.92587-10.50868 0-7.0921 5.83696-11.26033 13.26353-11.26033 4.33725 0 8.17461.91708 11.26032 3.003v6.67491h-.24815c-2.9994-2.42037-6.50948-3.84095-10.84674-3.84095s-6.75764 1.92048-6.75764 4.50629c0 2.92027 2.66853 3.75104 8.5954 5.67152"/><path fill="#040404" d="M294.73 185.632h18.26612c-.24816-5.41977-2.91668-9.588-8.5918-9.588-5.25434 0-8.67452 3.92007-9.67432 9.588zm10.92586 22.68969c-10.76043 0-18.10068-7.17482-18.10068-18.6833 0-11.51208 6.84035-19.51766 16.76642-19.51766 10.09869 0 15.34943 7.25753 15.34943 18.01436v3.17203h-25.19278c.75165 7.42297 5.50609 11.00858 12.0947 11.00858 4.0927 0 7.00938-.91708 10.26052-3.33746h.25175v6.0923c-2.9994 2.33407-6.92307 3.25115-11.42936 3.25115"/></svg>