<svg id="Layer_1" data-name="Layer 1" xmlns="http://www.w3.org/2000/svg" viewBox="0 0 431.46 151.15"><defs><style>.cls-1{fill:#1e384b;}.cls-2{fill:#00b6c9;}</style></defs><path class="cls-1" d="M171.46,76.8A17.49,17.49,0,0,0,167,74.36c-1.66-.62-3.32-1.2-5-1.74-1.33-.44-2.61-.89-3.82-1.33a13.31,13.31,0,0,1-3.27-1.7,8.3,8.3,0,0,1-2.29-2.51,7.2,7.2,0,0,1-.87-3.73,8.16,8.16,0,0,1,.9-3.94A8.49,8.49,0,0,1,155,56.64,10.24,10.24,0,0,1,158.3,55a12.33,12.33,0,0,1,3.54-.54,12.13,12.13,0,0,1,5.81,1.3,11.7,11.7,0,0,1,3.94,3.44l3.8-3.07a14.14,14.14,0,0,0-5.14-4A18.27,18.27,0,0,0,162,50.4a20.22,20.22,0,0,0-5.27.73,14.84,14.84,0,0,0-4.87,2.34,12.41,12.41,0,0,0-3.57,4.07A11.85,11.85,0,0,0,147,63.41a12.07,12.07,0,0,0,1.1,5.41,11.29,11.29,0,0,0,2.9,3.7A15.29,15.29,0,0,0,155,75c1.52.62,3.05,1.18,4.61,1.67s3,1,4.34,1.47a15.93,15.93,0,0,1,3.67,1.83,8.84,8.84,0,0,1,2.57,2.74,8,8,0,0,1,1,4.1,7.91,7.91,0,0,1-1,4,9.53,9.53,0,0,1-2.47,2.87,10.39,10.39,0,0,1-3.37,1.74,12.56,12.56,0,0,1-3.67.57,12.13,12.13,0,0,1-6.51-1.71A12.66,12.66,0,0,1,149.89,90l-4.13,3.07a16.09,16.09,0,0,0,2.93,3.07,16.93,16.93,0,0,0,3.61,2.2,19.14,19.14,0,0,0,4.07,1.3,21.33,21.33,0,0,0,4.27.43,19.74,19.74,0,0,0,5.57-.8,14.38,14.38,0,0,0,4.93-2.47,12.85,12.85,0,0,0,3.5-4.23A13,13,0,0,0,176,86.44a11.94,11.94,0,0,0-1.27-5.84A11.68,11.68,0,0,0,171.46,76.8Z"/><path class="cls-1" d="M190.51,58.81H186v8.81H179.5v3.8H186V90.91a9.76,9.76,0,0,0,.77,4.2,6.9,6.9,0,0,0,2,2.54,6.64,6.64,0,0,0,2.6,1.27,11.66,11.66,0,0,0,2.67.33,16.75,16.75,0,0,0,2.84-.23,14,14,0,0,0,2.5-.7l-.2-3.94a9.7,9.7,0,0,1-2,.73,7.83,7.83,0,0,1-2,.27,7,7,0,0,1-1.87-.23,3.34,3.34,0,0,1-1.5-.87,4.15,4.15,0,0,1-1-1.77,10.43,10.43,0,0,1-.33-2.87V71.42h8.81v-3.8h-8.81Z"/><path class="cls-1" d="M231.68,91.85V78.16a12.43,12.43,0,0,0-.93-5,9.51,9.51,0,0,0-2.6-3.54,11.42,11.42,0,0,0-3.87-2.1,15.48,15.48,0,0,0-4.74-.7,19.05,19.05,0,0,0-7.17,1.27,14.85,14.85,0,0,0-5.11,3.2l2.54,3a12.41,12.41,0,0,1,4.07-2.67,13.5,13.5,0,0,1,5.2-1,8.82,8.82,0,0,1,6.21,2c1.42,1.33,2.14,3.33,2.14,6v1q-4.28,0-8.25.3a28.88,28.88,0,0,0-7,1.34,11.08,11.08,0,0,0-4.91,3.15,8.44,8.44,0,0,0-1.83,5.73,8.79,8.79,0,0,0,1,4.42,9.13,9.13,0,0,0,2.6,2.94,10.17,10.17,0,0,0,3.47,1.64,15.35,15.35,0,0,0,10.21-.86,13.33,13.33,0,0,0,4.84-4.51h.13a25.71,25.71,0,0,0,.13,2.6c.09.89.2,1.72.34,2.47h4.07a26.06,26.06,0,0,1-.4-3.27C231.73,94.29,231.68,93.05,231.68,91.85Zm-4.26-6.28a11.77,11.77,0,0,1-.67,3.94,10,10,0,0,1-1.94,3.3,8.85,8.85,0,0,1-3.14,2.27,10.26,10.26,0,0,1-4.27.84,11.59,11.59,0,0,1-2.63-.3,7.17,7.17,0,0,1-2.37-1,5.07,5.07,0,0,1-1.7-1.83,5.6,5.6,0,0,1-.64-2.8,4.55,4.55,0,0,1,1.47-3.54,9.8,9.8,0,0,1,3.77-2,25.46,25.46,0,0,1,5.14-.93c1.89-.16,3.77-.23,5.64-.23h1.34Z"/><path class="cls-1" d="M255,66.82a11,11,0,0,0-6,1.7A10.77,10.77,0,0,0,245,73h-.13c0-.67,0-1.51-.07-2.54s-.11-2-.2-2.8h-4.34c.09,1.07.16,2.27.2,3.6s.07,2.43.07,3.27V98.85H245v-16a16.63,16.63,0,0,1,.77-5.36,11,11,0,0,1,2-3.66,7.41,7.41,0,0,1,2.9-2.09,9.16,9.16,0,0,1,3.47-.67,13.06,13.06,0,0,1,1.87.13,8.7,8.7,0,0,1,1.34.27l.6-4.34a8.41,8.41,0,0,0-1.44-.26A15,15,0,0,0,255,66.82Z"/><path class="cls-1" d="M293.22,71.56a15,15,0,0,0-5.07-3.47,16.66,16.66,0,0,0-6.64-1.27,14.83,14.83,0,0,0-6.61,1.57A12.87,12.87,0,0,0,269.7,73h-.14V48.4H265V98.85h4.53V93.58h.14a12.8,12.8,0,0,0,5.2,4.54,15.19,15.19,0,0,0,6.61,1.53,16.83,16.83,0,0,0,6.64-1.26,15.29,15.29,0,0,0,5.07-3.47,15.78,15.78,0,0,0,3.27-5.21,18.5,18.5,0,0,0,0-12.95A15.63,15.63,0,0,0,293.22,71.56Zm-1.17,16.58a11.85,11.85,0,0,1-2.3,4,10.57,10.57,0,0,1-3.7,2.67,12.44,12.44,0,0,1-5,1,11.69,11.69,0,0,1-11.11-7.57,14.2,14.2,0,0,1,0-9.95,12.26,12.26,0,0,1,2.5-4,11.41,11.41,0,0,1,3.81-2.67,11.9,11.9,0,0,1,4.8-1,12.11,12.11,0,0,1,5,1,10.79,10.79,0,0,1,3.7,2.71,11.8,11.8,0,0,1,2.3,4,15.44,15.44,0,0,1,0,9.81Z"/><path class="cls-1" d="M330.17,92V67.62h-4.54v16a16.72,16.72,0,0,1-.8,5.44,11.3,11.3,0,0,1-2.14,3.8,8.51,8.51,0,0,1-3,2.23,8.64,8.64,0,0,1-3.51.74,9.36,9.36,0,0,1-4.1-.8,6.63,6.63,0,0,1-2.61-2.24,9.28,9.28,0,0,1-1.36-3.43,22.75,22.75,0,0,1-.4-4.48V67.62h-4.54V86.77a14.07,14.07,0,0,0,3,9.35q3,3.54,8.91,3.53a12.62,12.62,0,0,0,6.34-1.7,10.24,10.24,0,0,0,4.34-4.44h.13c0,.67,0,1.52.07,2.54s.11,2,.2,2.8h4.33c-.08-1.06-.15-2.27-.2-3.6S330.17,92.82,330.17,92Z"/><path class="cls-1" d="M352.67,66.82a11,11,0,0,0-6,1.7,10.77,10.77,0,0,0-4,4.44h-.13c0-.67,0-1.51-.07-2.54s-.11-2-.2-2.8h-4.34c.09,1.07.16,2.27.2,3.6s.07,2.43.07,3.27V98.85h4.54v-16a16.63,16.63,0,0,1,.77-5.36,11,11,0,0,1,2-3.66,7.41,7.41,0,0,1,2.9-2.09,9.16,9.16,0,0,1,3.47-.67,13.06,13.06,0,0,1,1.87.13,8.7,8.7,0,0,1,1.34.27l.6-4.34a8.41,8.41,0,0,0-1.44-.26A15,15,0,0,0,352.67,66.82Z"/><path class="cls-1" d="M371.36,80.83a17.16,17.16,0,0,1-5.67-2,3.76,3.76,0,0,1-1.8-3.37,4.26,4.26,0,0,1,.56-2.2A4.7,4.7,0,0,1,366,71.76a6.54,6.54,0,0,1,2.13-.87,10.9,10.9,0,0,1,2.4-.27,8.71,8.71,0,0,1,4.64,1.24,8,8,0,0,1,3,3.17l3.47-2.61A10.18,10.18,0,0,0,377,68.29a14.5,14.5,0,0,0-6.34-1.47,16.18,16.18,0,0,0-4.13.53A11,11,0,0,0,363,69a8.24,8.24,0,0,0-2.51,2.8,8.42,8.42,0,0,0-.93,4.1,7.13,7.13,0,0,0,.87,3.68,7.89,7.89,0,0,0,2.2,2.43,10,10,0,0,0,2.9,1.47c1.05.33,2,.61,3,.83a31,31,0,0,1,6.84,2.31,4,4,0,0,1,2.37,3.7,5.06,5.06,0,0,1-.6,2.57,5,5,0,0,1-1.6,1.7,6.43,6.43,0,0,1-2.34.94,14.87,14.87,0,0,1-2.8.26,10.2,10.2,0,0,1-8.68-4.87l-3.6,2.67a12.67,12.67,0,0,0,5.47,4.6,16.92,16.92,0,0,0,6.88,1.47,17.85,17.85,0,0,0,4.23-.5,10.86,10.86,0,0,0,3.78-1.67,8.87,8.87,0,0,0,2.7-3,9,9,0,0,0,1-4.5,7.18,7.18,0,0,0-2.63-5.84Q376.9,82,371.36,80.83Z"/><path class="cls-1" d="M406.37,71.42v-3.8h-8.81V58.81H393v8.81h-6.47v3.8H393V90.91a9.76,9.76,0,0,0,.77,4.2,6.9,6.9,0,0,0,2,2.54,6.64,6.64,0,0,0,2.6,1.27,11.66,11.66,0,0,0,2.67.33,16.75,16.75,0,0,0,2.84-.23,13.79,13.79,0,0,0,2.5-.7l-.2-3.94a9.48,9.48,0,0,1-2,.73,7.77,7.77,0,0,1-2,.27,7,7,0,0,1-1.87-.23,3.34,3.34,0,0,1-1.5-.87,4.15,4.15,0,0,1-1-1.77,10.43,10.43,0,0,1-.33-2.87V71.42Z"/><path class="cls-2" d="M89.45,71.33,73.91,26.74h0a49,49,0,0,0-7,.56l21.5,44.49A10.57,10.57,0,0,1,89.45,71.33Z"/><path class="cls-2" d="M86,73.36,50,33a48.58,48.58,0,0,0-6.33,4.25l41.49,37A9.29,9.29,0,0,1,86,73.36Z"/><path class="cls-2" d="M83.59,76.55,31.48,51.36a48.64,48.64,0,0,0-3.33,7.12l55,19.16A9.58,9.58,0,0,1,83.59,76.55Z"/><path class="cls-2" d="M82.53,81c0-.21,0-.39.06-.59L25.09,77.1a48.24,48.24,0,0,0,.83,7.76l56.67-3.27C82.58,81.4,82.53,81.21,82.53,81Z"/><path class="cls-2" d="M83.14,84.37,32.77,101.92a49,49,0,0,0,4.49,5.94l46.33-22.4A9.58,9.58,0,0,1,83.14,84.37Z"/><path class="cls-2" d="M85.17,87.82,50.66,118.57a50.23,50.23,0,0,0,6.22,2.76L86,88.65A9.29,9.29,0,0,1,85.17,87.82Z"/><path class="cls-2" d="M88.35,90.23,71.88,124.32c.66,0,1.31.1,2,.1,1.31,0,2.61-.09,3.9-.2L89.45,90.68A10.57,10.57,0,0,1,88.35,90.23Z"/><path class="cls-1" d="M92.81,91.29c-.2,0-.39-.05-.59-.06l-1.74,30.23q2.34-.85,4.55-1.92L93.4,91.23C93.2,91.24,93,91.29,92.81,91.29Z"/><path class="cls-1" d="M99.63,88.65l13.79,15.49c.71-1,1.37-2,2-3l-15-13.33A10.83,10.83,0,0,1,99.63,88.65Z"/><path class="cls-1" d="M103,80.42c0,.2.06.38.06.59s0,.39-.06.58l19.08,1.1c.17-1.12.31-2.25.39-3.4Z"/><path class="cls-1" d="M100.46,74.19l18.74-16.7c-.55-1.38-1.17-2.72-1.84-4L99.63,73.36A10.83,10.83,0,0,1,100.46,74.19Z"/><path class="cls-1" d="M92.22,70.78c.2,0,.39-.06.59-.06s.39,0,.59.06l2.24-38.87a48.69,48.69,0,0,0-5.8-2.45Z"/><path class="cls-1" d="M96.18,90.68l8,23.11c1.08-.86,2.11-1.77,3.11-2.72L97.27,90.23A9.58,9.58,0,0,1,96.18,90.68Z"/><path class="cls-1" d="M102,85.46l17.13,8.29c.42-1,.81-2.09,1.16-3.16l-17.85-6.22A9.54,9.54,0,0,1,102,85.46Z"/><path class="cls-1" d="M102.48,77.64l20-7c-.12-1.26-.34-2.5-.56-3.73L102,76.55A9.54,9.54,0,0,1,102.48,77.64Z"/><path class="cls-1" d="M110.83,43.72a51.39,51.39,0,0,0-3.7-3.83L96.18,71.33a9.58,9.58,0,0,1,1.09.45Z"/></svg>