<svg xmlns="http://www.w3.org/2000/svg" role="img" viewBox="-5.29 -5.29 275.08 83.83"><title>Yahoo Japan (adopter) logo</title><g fill="#5f01d1" transform="translate(260.955 41.214)"><path d="M-260.95542-23.35158h15.74097l9.16577 23.44972 9.28475-23.44972h15.32641l-23.07818 55.5131h-15.42354l6.31728-14.71009zm65.48401-.93351c-11.82693 0-19.30359 10.6069-19.30359 21.1697 0 11.88625 8.19723 21.30993 19.07922 21.30993 8.11755 0 11.17827-4.94575 11.17827-4.94575v3.85265h13.72915v-40.45277h-13.72915v3.67752s-3.41477-4.61128-10.9539-4.61128zm2.92026 12.99993c5.45704 0 8.27307 4.318 8.27307 8.21422 0 4.1955-3.01696 8.31274-8.27307 8.31274-4.35623 0-8.29289-3.55998-8.29289-8.13419 0-4.63893 3.16648-8.39277 8.29289-8.39277zm26.49104 28.38635v-58.31503h14.35985v21.6801s3.41082-4.74635 10.5543-4.74635c8.73797 0 13.85746 6.5105 13.85746 15.81373v25.56755h-14.25479V-4.96396c0-3.14841-1.49969-6.1899-4.89676-6.1899-3.45803 0-5.26021 3.08758-5.26021 6.1899V17.1012zm63.25465-41.3815c-13.54405 0-21.60888 10.29892-21.60888 21.33321 0 12.5572 9.76468 21.14163 21.66017 21.14163 11.52965 0 21.61846-8.19485 21.61846-20.93096 0-13.9356-10.5633-21.54387-21.66975-21.54387zm.12933 13.1142c4.78424 0 8.09451 3.98475 8.09451 8.23404 0 3.62432-3.08457 8.09455-8.09451 8.09455-4.5906 0-8.03569-3.68236-8.03569-8.1342 0-4.28855 2.86425-8.1944 8.03569-8.1944zm45.46324-13.1142c-13.54404 0-21.60887 10.29892-21.60887 21.33321 0 12.5572 9.76468 21.14164 21.66017 21.14164 11.52964 0 21.61846-8.19486 21.61846-20.93097 0-13.9356-10.56329-21.54387-21.66976-21.54387zm.12933 13.1142c4.78423 0 8.09452 3.98475 8.09452 8.23404 0 3.62432-3.08459 8.09455-8.09452 8.09455-4.5906 0-8.03569-3.68236-8.03569-8.1342 0-4.28855 2.86425-8.1944 8.0357-8.1944z"/><circle cx="-24.212" cy="8.425" r="9.535"/><path d="M-11.54341-4.61372h-17.16636l15.23542-36.60012H3.62792z"/></g></svg>