<svg xmlns="http://www.w3.org/2000/svg" role="img" viewBox="-5.99 -5.99 311.74 158.24"><title>Yelp (adopter) logo</title><defs><clipPath id="a"><path d="M406.788 304.001h-60.901v-29.714h60.901v29.714z"/></clipPath></defs><g clip-path="url(#a)" transform="matrix(4.92607 0 0 -4.92607 -1703.865 1497.53)"><path fill="#fff" d="M405.717 287.389c-.389.294-.453.339-2.791 1.109 2.025.498 2.112.551 2.471.787.813.551 1.247 1.465 1.184 2.455l-.008.108c-.165 1.589-2.212 4.587-3.59 5.26-.909.434-1.92.373-2.716-.162-.375-.248-.425-.282-1.964-2.383-.15 2.455-.439 6.784-.51 7.189l-.015.093-.023.09c-.263.951-1.009 1.665-1.997 1.913-1.649.411-6.01-.818-7.18-2.024-.687-.717-.951-1.682-.714-2.587l.048-.18.081-.167c.112-.231.407-.72 2.938-4.691l.933-1.47c-2.266.927-2.356.93-2.825.934-.893.039-1.788-.439-2.327-1.283l-.01-.016c-.278-.448-.45-1.057-.557-1.695-.73.984-1.829 1.773-3.495 2.1-1.181.237-2.289.094-3.333-.328-.956.61-2.27.681-3.369.054-.339-.193-.593-.423-.792-.668v1.348l-.105.801-.032.144c-.221.869-.877 1.602-1.755 1.962l-.008.004c-.964.389-2.045.296-2.962-.253-.977-.577-1.478-1.535-1.478-2.845v-2.749c-.348.542-.778 1.012-1.287 1.398-1.372 1.04-3.212 1.391-5.318 1.013-1.221-.212-2.242-.745-3.051-1.527-.013.025-.026.056-.039.081-.411.736-1.078 1.242-1.932 1.466-1.426.391-3.236-.094-3.983-2.644 0 0-.121-.412-.287-.975-.327.6-1.175 2.239-1.21 2.288-.764 1.158-2.294 1.66-3.662 1.116-1.322-.498-2.087-1.661-2.087-3.028 0-.431.075-.88.232-1.336l.039-.111s2.716-5.532 3.502-7.133c-1.263-.333-2.163-1.275-2.309-2.567-.015-.123-.023-.247-.023-.369 0-.822.341-1.607.967-2.183.95-.877 2.426-1.167 4.159-.812 1.883.37 2.966 1.505 3.725 3.912l1.155 3.629c.376-1.528 1.06-2.526 1.709-3.166.933-.923 2.642-1.944 5.471-1.562 2.102.294 3.557 1.235 4.343 2.341l.051-.267c.224-.789.833-1.49 1.651-1.863.855-.396 1.845-.389 2.713.018.453.197.837.508 1.136.897v-1.144c0-1.891 1.094-2.695 1.746-3.007.851-.428 1.87-.462 2.757-.077.838.363 1.46 1.054 1.704 1.893l.038.129.114.78v.335c1.137-.116 2.324.069 3.369.611.462.24.866.529 1.227.861h.768c.418-.22.893-.357 1.404-.357.513 0 .987.137 1.404.357h2.227c1.475-.83 3.631-1.459 4.785-1.261.994.176 1.777.816 2.108 1.713l.017.045c.14.408.163.484.173 2.789 1.264-2.042 1.33-2.096 1.685-2.376.763-.595 1.766-.726 2.692-.353 1.487.597 3.759 3.485 3.987 5.07.019.138.03.278.03.415 0 .83-.358 1.599-.999 2.111zm-23.075 5.382c.003-.002.005-.002.008-.002.002-.002.004-.002.007-.002l-.015.004zm20.059-12.978h-.002c-.003 0-.004-.003-.007-.004l.009.004"/><path fill="none" stroke="#bdbcbc" stroke-linecap="round" stroke-linejoin="round" stroke-width=".145" d="M405.717 287.389c-.389.294-.453.339-2.791 1.109 2.025.498 2.112.551 2.471.787.813.551 1.247 1.465 1.184 2.455l-.008.108c-.165 1.589-2.212 4.587-3.59 5.26-.909.434-1.92.373-2.716-.162-.375-.248-.425-.282-1.964-2.383-.15 2.455-.439 6.784-.51 7.189l-.015.093-.023.09c-.263.951-1.009 1.665-1.997 1.913-1.649.411-6.01-.818-7.18-2.024-.687-.717-.951-1.682-.714-2.587l.048-.18.081-.167c.112-.231.407-.72 2.938-4.691l.933-1.47c-2.266.927-2.356.93-2.825.934-.893.039-1.788-.439-2.327-1.283l-.01-.016c-.278-.448-.45-1.057-.557-1.695-.73.984-1.829 1.773-3.495 2.1-1.181.237-2.289.094-3.333-.328-.956.61-2.27.681-3.369.054-.339-.193-.593-.423-.792-.668v1.348l-.105.801-.032.144c-.221.869-.877 1.602-1.755 1.962l-.008.004c-.964.389-2.045.296-2.962-.253-.977-.577-1.478-1.535-1.478-2.845v-2.749c-.348.542-.778 1.012-1.287 1.398-1.372 1.04-3.212 1.391-5.318 1.013-1.221-.212-2.242-.745-3.051-1.527-.013.025-.026.056-.039.081-.411.736-1.078 1.242-1.932 1.466-1.426.391-3.236-.094-3.983-2.644 0 0-.121-.412-.287-.975-.327.6-1.175 2.239-1.21 2.288-.764 1.158-2.294 1.66-3.662 1.116-1.322-.498-2.087-1.661-2.087-3.028 0-.431.075-.88.232-1.336l.039-.111s2.716-5.532 3.502-7.133c-1.263-.333-2.163-1.275-2.309-2.567-.015-.123-.023-.247-.023-.369 0-.822.341-1.607.967-2.183.95-.877 2.426-1.167 4.159-.812 1.883.37 2.966 1.505 3.725 3.912l1.155 3.629c.376-1.528 1.06-2.526 1.709-3.166.933-.923 2.642-1.944 5.471-1.562 2.102.294 3.557 1.235 4.343 2.341l.051-.267c.224-.789.833-1.49 1.651-1.863.855-.396 1.845-.389 2.713.018.453.197.837.508 1.136.897v-1.144c0-1.891 1.094-2.695 1.746-3.007.851-.428 1.87-.462 2.757-.077.838.363 1.46 1.054 1.704 1.893l.038.129.114.78v.335c1.137-.116 2.324.069 3.369.611.462.24.866.529 1.227.861h.768c.418-.22.893-.357 1.404-.357.513 0 .987.137 1.404.357h2.227c1.475-.83 3.631-1.459 4.785-1.261.994.176 1.777.816 2.108 1.713l.017.045c.14.408.163.484.173 2.789 1.264-2.042 1.33-2.096 1.685-2.376.763-.595 1.766-.726 2.692-.353 1.487.597 3.759 3.485 3.987 5.07.019.138.03.278.03.415 0 .83-.358 1.599-.999 2.111z"/><path fill="none" stroke="#bdbcbc" stroke-linecap="round" stroke-linejoin="round" stroke-width=".145" d="M382.642 292.771c.004-.002.005-.002.008-.002.003-.002.004-.002.008-.002l-.016.004z"/><path fill="none" stroke="#bdbcbc" stroke-linecap="round" stroke-linejoin="round" stroke-width=".145" d="M402.702 279.793h-.003c-.002 0-.003-.003-.006-.004l.009.004z"/></g><path fill="#e9e9e9" d="M207.592 66.059c-1.77831 2.84727-2.52215 11.79301-1.90639 17.73878.21182 1.96057.56157 3.59603 1.08866 4.56646.70936 1.35467 1.90147 2.16255 3.26106 2.20688.86206.04434 1.40886-.09852 17.80282-5.38419 0 0 7.28566-2.31525 7.32506-2.33003 1.80295-.46798 3.03446-2.13299 3.15269-4.26598.11822-2.1921-1.0197-4.1182-2.8719-4.8177l-5.14282-2.0985c-17.62548-7.27088-18.40872-7.54674-19.30527-7.5566-1.35466-.06403-2.56155.63055-3.40391 1.94088"/><path fill="#e9e9e9" d="M246.996 120.206c.29064-.82758.3202-1.39408.36453-18.61562 0 0 .04433-7.61078.05911-7.69452.10838-1.8522-1.09359-3.55662-3.07387-4.32016-2.03446-.78817-4.22656-.30542-5.463 1.23151 0 0-3.58619 4.25613-3.60096 4.26105-12.33981 14.50728-12.85705 15.16737-13.15261 16.03436-.1872.50246-.26108 1.03448-.20197 1.57635.07882.76354.41872 1.53693 1.00492 2.22658 2.85712 3.41377 16.58608 8.46299 20.96043 7.71422 1.52215-.27586 2.63544-1.14284 3.10342-2.41377"/><path fill="#e9e9e9" d="M274.828 114.21c4.14775-1.65023 13.18216-13.13783 13.8127-17.55159.21675-1.54186-.26108-2.86204-1.32511-3.71425-.68473-.52217-1.23152-.72414-17.60085-6.1034 0 0-7.19699-2.37437-7.2758-2.41378-1.74876-.6798-3.72904-.05419-5.064 1.59605-1.38916 1.68964-1.6059 3.9113-.48769 5.60094l2.8916 4.7044c9.729 15.80283 10.46298 16.91612 11.16248 17.46784 1.08374.84236 2.46796.99507 3.88667.41379"/><path fill="#e9e9e9" d="M266.38 73.541c18.62054-4.50243 19.33482-4.73888 20.07374-5.22163 1.12807-.76847 1.68471-2.02955 1.59112-3.5911 0-.0542.00492-.09853 0-.15272-.48276-4.56646-8.48762-16.46292-12.4334-18.39394-1.40393-.66502-2.80294-.62069-3.95564.14778-.7192.48275-1.25615 1.1724-11.21666 14.81762 0 0-4.50735 6.13788-4.56154 6.19207-1.18718 1.43841-1.20196 3.51229-.04926 5.2906 1.19703 1.83742 3.23643 2.73397 5.09848 2.21673 0 0-.08374.12808-.09852.15763.91132-.34975 2.56648-.75369 5.55168-1.46304"/><path fill="#e9e9e9" d="M247.68 58.167c-.32512-7.37925-2.53693-40.23121-2.798-41.74844-.37932-1.38915-1.45812-2.36944-3.00984-2.7586-4.7438-1.18226-22.91607 3.91622-26.28058 7.3891-1.07388 1.12315-1.47782 2.51722-1.15763 3.74874.5271 1.08374 23.0343 36.49725 23.0343 36.49725 3.33003 5.39898 6.0443 4.55662 6.93099 4.28076.88669-.27586 3.58618-1.11822 3.28076-7.40881"/><path fill="#bf2519" d="M209.08 62.334c-1.77339 2.84234-2.52215 11.79301-1.90639 17.73385.21675 1.96058.57143 3.59603 1.08866 4.5714.70936 1.34974 1.90147 2.15269 3.26106 2.20195.87192.04433 1.41378-.10345 17.80774-5.37434 0 0 7.28566-2.3251 7.31522-2.33989 1.81772-.46305 3.03938-2.13299 3.1576-4.26597.11823-2.18718-1.00984-4.1182-2.87189-4.8177 0 0-5.1379-2.09358-5.14774-2.09358-17.61563-7.26595-18.40873-7.55167-19.29542-7.56152-1.3596-.05418-2.56648.63054-3.40884 1.9458"/><path fill="#bf2519" d="M248.488 116.472c.28571-.82758.3202-1.39408.36946-18.61562 0 0 .0394-7.61078.04433-7.68467.11823-1.86698-1.08866-3.56647-3.06402-4.32509-2.03446-.78324-4.22656-.30049-5.45808 1.23152 0 0-3.59603 4.26598-3.60588 4.26598-12.33981 14.49742-12.85705 15.16737-13.15754 16.0245-.18226.50246-.25615 1.04433-.19704 1.58127.0739.76847.42364 1.52708 1 2.23644 2.86204 3.39899 16.58607 8.4482 20.97027 7.69944 1.52216-.27586 2.63052-1.133 3.0985-2.41377"/><path fill="#bf2519" d="M276.33 110.477c4.1379-1.65023 13.16246-13.1329 13.79792-17.55159.22168-1.53693-.26108-2.86204-1.32018-3.70933-.69458-.52216-1.22167-.72413-17.60578-6.1034 0 0-7.18714-2.37436-7.28073-2.4187-1.7389-.67487-3.7241-.04926-5.05907 1.59605-1.38916 1.68964-1.59605 3.92115-.48769 5.60587l2.8916 4.70932c9.72407 15.79298 10.4679 16.9112 11.1674 17.45799 1.08374.85221 2.46304.99014 3.89653.41379"/><path fill="#bf2519" d="M267.862 69.817c18.62054-4.51228 19.33975-4.74873 20.07374-5.23149 1.12807-.75861 1.69456-2.02954 1.59604-3.57632 0-.04926.00985-.10345 0-.15764-.47783-4.57139-8.48762-16.46292-12.4334-18.39394-1.399-.66995-2.798-.62561-3.96056.1527-.7192.46798-1.2463 1.17734-11.21666 14.8127 0 0-4.50243 6.13296-4.55662 6.19207-1.18718 1.44334-1.20688 3.51229-.04433 5.28567 1.20196 1.83743 3.2315 2.73397 5.09356 2.21673 0 0-.0739.133-.0936.15764.91625-.34483 2.55663-.74877 5.54183-1.45812"/><path fill="#bf2519" d="M249.173 54.443c-.3202-7.37925-2.54185-40.23614-2.80293-41.7583-.37439-1.3793-1.4532-2.3645-2.99998-2.75367-4.75366-1.17733-22.921 3.9113-26.28551 7.38418-1.08374 1.12807-1.48275 2.51722-1.15763 3.74874.53202 1.08866 23.03923 36.50218 23.03923 36.50218 3.3251 5.39405 6.03936 4.55661 6.93098 4.27583.88177-.27094 3.58126-1.10837 3.27584-7.39896"/><path fill="#231f20" d="M18.623 132.324c2.3448 2.1724 6.78812 2.78816 12.1871 1.68964 5.05907-.99999 8.19698-3.26106 11.21666-12.86197l15.03929-47.25086c.77832-2.50737.7192-4.6847-.17241-6.30044-.72413-1.30049-1.93102-2.18225-3.63544-2.63545-2.67978-.73399-6.02459-.6601-8.13294 6.54182l-7.89157 26.80275s-16.07376-30.3643-16.08362-30.36922c-1.01477-2.02955-3.99011-3.48274-7.01965-2.28078-3.9507 1.50246-5.26596 5.05415-3.68962 9.63047 0 0 19.55157 39.78787 19.5959 39.89624 0 0 .53202 1.41871.53202 1.65024 0 0 .17734 1.0788.17734 1.11821-.03941 1.53201-.55172 2.82264-1.46797 3.6847-.90147.84729-2.1527 1.29063-3.61574 1.23152 0 0-3.04923-.06896-3.28076-.06896-3.13298.38423-5.1034 2.18225-5.41868 4.96055-.22167 1.78816.35468 3.35958 1.66009 4.56154"/><path fill="#231f20" d="M95.662 87.521H74.7262c-.5665-.41379-.84236-1.10837-.41871-3.19702.266-1.09851.55172-2.08373 1.38915-3.46303.27093-.41379.55172-.83743.82265-1.26107 1.53201-1.93595 3.60589-3.17732 5.96547-3.72904 7.35955-1.79801 12.49252 1.94088 13.32502 8.32014.39901 2.78323.13793 3.33002-.14778 3.33002zm12.8669-3.6453c-.67488-6.82752-3.31032-12.15753-7.63049-15.42352-4.60095-3.49258-11.11321-4.60587-18.82251-3.22657-9.66495 1.67486-15.46786 8.58121-16.7979 19.99984-1.63546 13.65014.61083 23.93578 6.5172 29.75346 4.45316 4.39898 11.03931 6.14774 19.0491 5.064 11.42356-1.6059 16.56145-7.87678 16.56145-11.84227 0-2.91623-1.76353-5.21178-4.35464-5.56153-1.48275-.29557-2.73397 0-5.50243 2.47781-3.99011 3.4778-8.6157 4.87681-12.71418 3.83741-3.12313-.7931-5.56153-2.94579-6.66497-5.8965 0 0-.49261-1.95073-.46306-1.73398-.33497-1.7586-.48768-3.50244.59606-4.2118l.29064-.19703h25.0934c2.31525 0 3.48766-.3005 4.16253-1.02955 1.3793-1.53201 1.27092-5.90636.6798-12.00976"/><path fill="#231f20" d="M131.277 47.768c-1.9852-.80788-4.22657-.59113-6.19207.58128-1.89161 1.11821-2.67978 2.82263-2.67978 5.90143v59.83204s.33004 2.13792.36453 2.23151c.42364 1.4926 1.52708 2.76353 3.05909 3.4581 1.6995.78818 3.66007.7734 5.41375-.04926 2.18225-.9458 3.46795-3.12805 3.46795-5.83246V53.94529s-.3793-2.89653-.3793-2.95071c-.34976-1.38916-1.49753-2.59112-3.05417-3.22658"/><path fill="#231f20" d="M178.627 108.541c-8.28565 0-9.60584-7.35462-9.86692-12.9063-.01478-.01478-.10837-3.25121-.10837-3.25121s.0936-2.40392.0936-2.49752c.53694-9.60583 2.52214-13.39398 7.59107-14.44816 3.40391-.78817 6.00488-.40394 7.9556 1.16748 2.93101 2.35959 4.22164 7.35462 4.10342 15.68953-.08375 9.75855-1.78324 16.24618-9.7684 16.24618zm.61576-43.9307c-5.55168-1.13299-10.30041-.18226-14.86688 2.91132 0 0-.51231.41378-.70935.53201l-.40887.2069-1.25122.56157-.35468-1.40393-.30049-.50739-.10344-.31527-.03449-.0936s-.30541-.40886-.34975-.4729c-1.31033-2.03939-4.87188-2.97534-8.08368-1.14284-1.57142.89162-2.47289 2.14776-2.47289 5.8965v58.72368c0 3.21673 1.00985 5.21671 3.21673 6.2709 1.86205.93594 3.95563 1.00984 5.75365.23644 1.52708-.66994 2.65022-1.8522 3.06894-3.29061l.36945-2.51722v-10.16249l-.10837-1.63545.04433-.48276.06404-.23152.60591-1.93595 1.83742 1.22167s.46306.30541.6601.5123l.55172.36454c.00492.00492.64039.37438.64039.37438.00985 0 .59113.28571.59113.28571 4.92607 2.3251 11.51715 2.05417 16.82252-.6798 6.67976-3.48765 9.98022-9.6748 10.74376-20.06388 1.59605-20.76338-3.18224-30.68449-15.92598-33.1623"/><path fill="#231f20" d="M204.986 113.137h.68472c.55665 0 1.07881-.02956 1.07881-.65517 0-.56157-.47783-.62068-.9064-.62068h-.85713v1.27585zm-.56157-1.77831h1.46797c.96058 0 1.40885.34975 1.40885 1.14777 0 .7192-.45812 1.0197-1.0591 1.08374l1.15762 1.76846h-.6059l-1.09359-1.7192h-.71428v1.7192h-.56157v-3.99997zm1.29555 4.92607c1.62068 0 2.92609-1.27585 2.92609-2.9655 0-1.66008-1.3054-2.94086-2.92609-2.94086-1.6256 0-2.931 1.28078-2.931 2.97535 0 1.65516 1.3054 2.931 2.931 2.931zm0-6.4039c1.89162 0 3.48274 1.48768 3.48274 3.4384 0 1.98521-1.59112 3.46796-3.48274 3.46796-1.89653 0-3.48273-1.48275-3.48273-3.43347 0-1.9852 1.5862-3.47288 3.48273-3.47288"/></svg>